<?xml version="1.0" encoding="utf-8"?>
<!-- Generator: Adobe Illustrator 15.0.2, SVG Export Plug-In . SVG Version: 6.00 Build 0)  -->
<!DOCTYPE svg PUBLIC "-//W3C//DTD SVG 1.1//EN" "http://www.w3.org/Graphics/SVG/1.1/DTD/svg11.dtd">
<svg version="1.1" id="Ebene_1" xmlns="http://www.w3.org/2000/svg" xmlns:xlink="http://www.w3.org/1999/xlink" x="0px" y="0px"
	 width="512px" height="512px" viewBox="-255.5 536.5 512 512" enable-background="new -255.5 536.5 512 512" xml:space="preserve">
<title>HTML5 Logo</title>
<polygon fill="#E44D26" points="-183.082,989.095 -222.54,546.522 211.04,546.522 171.54,989.025 -6.016,1038.25 "/>
<polygon fill="#F16529" points="-5.75,1000.625 137.724,960.849 171.479,582.709 -5.75,582.709 "/>
<polygon fill="#EBEBEB" points="-5.75,746.854 -77.576,746.854 -82.537,691.27 -5.75,691.27 -5.75,636.99 -5.938,636.99 
	-141.858,636.99 -140.559,651.553 -127.218,801.132 -5.75,801.132 "/>
<polygon fill="#EBEBEB" points="-5.75,887.823 -5.988,887.887 -66.439,871.563 -70.304,828.273 -99.679,828.273 -124.792,828.273 
	-117.188,913.5 -6,944.366 -5.75,944.297 "/>
<polygon fill="#FFFFFF" points="-5.938,746.854 -5.938,801.132 60.901,801.132 54.602,871.529 -5.938,887.869 -5.938,944.34 
	105.339,913.5 106.155,904.33 118.91,761.429 120.234,746.854 105.607,746.854 "/>
<polygon fill="#FFFFFF" points="-5.938,636.99 -5.938,670.702 -5.938,691.137 -5.938,691.27 124.999,691.27 124.999,691.27 
	125.174,691.27 126.263,679.069 128.735,651.553 130.034,636.99 "/>
</svg>
